<mxfile host="Electron" agent="Mozilla/5.0 (Windows NT 10.0; Win64; x64) AppleWebKit/537.36 (KHTML, like Gecko) draw.io/24.7.17 Chrome/128.0.6613.36 Electron/32.0.1 Safari/537.36" version="24.7.17">
  <diagram name="Страница — 1" id="8fz09ONww1OwgcXzLnte">
    <mxGraphModel dx="1290" dy="621" grid="1" gridSize="10" guides="1" tooltips="1" connect="1" arrows="1" fold="1" page="1" pageScale="1" pageWidth="827" pageHeight="1169" math="0" shadow="0">
      <root>
        <mxCell id="0" />
        <mxCell id="1" parent="0" />
        <mxCell id="1LH6ZCBSvTzN1FmaH12b-6" value="controller" style="swimlane;whiteSpace=wrap;html=1;" parent="1" vertex="1">
          <mxGeometry x="324" y="90" width="200" height="540" as="geometry" />
        </mxCell>
        <mxCell id="1LH6ZCBSvTzN1FmaH12b-5" value="viewer" style="swimlane;whiteSpace=wrap;html=1;" parent="1LH6ZCBSvTzN1FmaH12b-6" vertex="1">
          <mxGeometry x="-190" width="190" height="540" as="geometry" />
        </mxCell>
        <mxCell id="1LH6ZCBSvTzN1FmaH12b-12" value="страница с авторизацией" style="rounded=0;whiteSpace=wrap;html=1;" parent="1LH6ZCBSvTzN1FmaH12b-5" vertex="1">
          <mxGeometry x="26" y="140" width="120" height="60" as="geometry" />
        </mxCell>
        <mxCell id="ra5IvtY3AvrsIVkruxDb-3" value="" style="endArrow=classic;html=1;rounded=0;exitX=0;exitY=0.5;exitDx=0;exitDy=0;" edge="1" parent="1LH6ZCBSvTzN1FmaH12b-5">
          <mxGeometry width="50" height="50" relative="1" as="geometry">
            <mxPoint x="26" y="160" as="sourcePoint" />
            <mxPoint x="-74" y="160" as="targetPoint" />
          </mxGeometry>
        </mxCell>
        <mxCell id="ra5IvtY3AvrsIVkruxDb-1" value="метод GET" style="rounded=0;whiteSpace=wrap;html=1;" vertex="1" parent="1LH6ZCBSvTzN1FmaH12b-6">
          <mxGeometry x="30" y="40" width="120" height="130" as="geometry" />
        </mxCell>
        <mxCell id="ra5IvtY3AvrsIVkruxDb-2" value="" style="endArrow=classic;html=1;rounded=0;exitX=0.027;exitY=0.596;exitDx=0;exitDy=0;entryX=1;entryY=0.25;entryDx=0;entryDy=0;exitPerimeter=0;" edge="1" parent="1LH6ZCBSvTzN1FmaH12b-6" source="ra5IvtY3AvrsIVkruxDb-1" target="1LH6ZCBSvTzN1FmaH12b-12">
          <mxGeometry width="50" height="50" relative="1" as="geometry">
            <mxPoint x="66" y="260" as="sourcePoint" />
            <mxPoint x="116" y="210" as="targetPoint" />
          </mxGeometry>
        </mxCell>
        <mxCell id="ra5IvtY3AvrsIVkruxDb-5" value="переадресация" style="edgeLabel;html=1;align=center;verticalAlign=middle;resizable=0;points=[];" vertex="1" connectable="0" parent="ra5IvtY3AvrsIVkruxDb-2">
          <mxGeometry x="-0.4447" relative="1" as="geometry">
            <mxPoint x="-12" y="-19" as="offset" />
          </mxGeometry>
        </mxCell>
        <mxCell id="ra5IvtY3AvrsIVkruxDb-7" value="метод POST" style="rounded=0;whiteSpace=wrap;html=1;" vertex="1" parent="1LH6ZCBSvTzN1FmaH12b-6">
          <mxGeometry x="30" y="210" width="120" height="130" as="geometry" />
        </mxCell>
        <mxCell id="ra5IvtY3AvrsIVkruxDb-8" value="" style="endArrow=classic;html=1;rounded=0;exitX=1;exitY=0.75;exitDx=0;exitDy=0;entryX=0;entryY=0.25;entryDx=0;entryDy=0;" edge="1" parent="1LH6ZCBSvTzN1FmaH12b-6" source="1LH6ZCBSvTzN1FmaH12b-12" target="ra5IvtY3AvrsIVkruxDb-7">
          <mxGeometry width="50" height="50" relative="1" as="geometry">
            <mxPoint x="66" y="260" as="sourcePoint" />
            <mxPoint x="116" y="210" as="targetPoint" />
          </mxGeometry>
        </mxCell>
        <mxCell id="ra5IvtY3AvrsIVkruxDb-9" value="пароль и логин&lt;br&gt;пользователя" style="edgeLabel;html=1;align=center;verticalAlign=middle;resizable=0;points=[];" vertex="1" connectable="0" parent="ra5IvtY3AvrsIVkruxDb-8">
          <mxGeometry x="-0.3838" y="-2" relative="1" as="geometry">
            <mxPoint x="-22" y="26" as="offset" />
          </mxGeometry>
        </mxCell>
        <mxCell id="ra5IvtY3AvrsIVkruxDb-10" value="" style="endArrow=classic;html=1;rounded=0;" edge="1" parent="1LH6ZCBSvTzN1FmaH12b-6">
          <mxGeometry width="50" height="50" relative="1" as="geometry">
            <mxPoint x="150" y="250" as="sourcePoint" />
            <mxPoint x="236" y="250" as="targetPoint" />
          </mxGeometry>
        </mxCell>
        <mxCell id="ra5IvtY3AvrsIVkruxDb-20" value="создание сессии с помощью&lt;br&gt;роли, id внутри ИС,&lt;br&gt;имени пользователя,&lt;br&gt;специализации и депортамента" style="rounded=0;whiteSpace=wrap;html=1;" vertex="1" parent="1LH6ZCBSvTzN1FmaH12b-6">
          <mxGeometry x="40" y="360" width="120" height="150" as="geometry" />
        </mxCell>
        <mxCell id="1LH6ZCBSvTzN1FmaH12b-7" value="model" style="swimlane;whiteSpace=wrap;html=1;" parent="1" vertex="1">
          <mxGeometry x="524" y="90" width="200" height="540" as="geometry" />
        </mxCell>
        <mxCell id="ra5IvtY3AvrsIVkruxDb-12" value="вставление данных&lt;br&gt;в запрос с помощью&amp;nbsp;&lt;br&gt;provider" style="rounded=0;whiteSpace=wrap;html=1;" vertex="1" parent="1LH6ZCBSvTzN1FmaH12b-7">
          <mxGeometry x="36" y="220" width="120" height="60" as="geometry" />
        </mxCell>
        <mxCell id="ra5IvtY3AvrsIVkruxDb-13" value="попытка подлючения&lt;br&gt;к ИС" style="rounded=0;whiteSpace=wrap;html=1;" vertex="1" parent="1LH6ZCBSvTzN1FmaH12b-7">
          <mxGeometry x="36" y="330" width="120" height="60" as="geometry" />
        </mxCell>
        <mxCell id="ra5IvtY3AvrsIVkruxDb-14" value="" style="endArrow=classic;html=1;rounded=0;exitX=0.5;exitY=1;exitDx=0;exitDy=0;" edge="1" parent="1LH6ZCBSvTzN1FmaH12b-7" source="ra5IvtY3AvrsIVkruxDb-12" target="ra5IvtY3AvrsIVkruxDb-13">
          <mxGeometry width="50" height="50" relative="1" as="geometry">
            <mxPoint x="-134" y="260" as="sourcePoint" />
            <mxPoint x="-84" y="210" as="targetPoint" />
          </mxGeometry>
        </mxCell>
        <mxCell id="ra5IvtY3AvrsIVkruxDb-15" value="запрос и конфигурация" style="edgeLabel;html=1;align=center;verticalAlign=middle;resizable=0;points=[];" vertex="1" connectable="0" parent="ra5IvtY3AvrsIVkruxDb-14">
          <mxGeometry x="-0.1333" relative="1" as="geometry">
            <mxPoint y="-2" as="offset" />
          </mxGeometry>
        </mxCell>
        <mxCell id="1LH6ZCBSvTzN1FmaH12b-8" value="" style="endArrow=classic;html=1;rounded=0;entryX=0.027;entryY=0.158;entryDx=0;entryDy=0;entryPerimeter=0;" parent="1" edge="1" target="ra5IvtY3AvrsIVkruxDb-1">
          <mxGeometry width="50" height="50" relative="1" as="geometry">
            <mxPoint x="40" y="160" as="sourcePoint" />
            <mxPoint x="390" y="160" as="targetPoint" />
          </mxGeometry>
        </mxCell>
        <mxCell id="1LH6ZCBSvTzN1FmaH12b-9" value="пользователь входит в систему" style="edgeLabel;html=1;align=center;verticalAlign=middle;resizable=0;points=[];" parent="1LH6ZCBSvTzN1FmaH12b-8" vertex="1" connectable="0">
          <mxGeometry x="0.3729" y="-1" relative="1" as="geometry">
            <mxPoint x="-66" y="-11" as="offset" />
          </mxGeometry>
        </mxCell>
        <mxCell id="ra5IvtY3AvrsIVkruxDb-4" value="" style="endArrow=classic;html=1;rounded=0;entryX=-0.003;entryY=0.873;entryDx=0;entryDy=0;entryPerimeter=0;" edge="1" parent="1" target="1LH6ZCBSvTzN1FmaH12b-12">
          <mxGeometry width="50" height="50" relative="1" as="geometry">
            <mxPoint x="60" y="282" as="sourcePoint" />
            <mxPoint x="440" y="300" as="targetPoint" />
          </mxGeometry>
        </mxCell>
        <mxCell id="ra5IvtY3AvrsIVkruxDb-6" value="вводимые данные&lt;div&gt;пользователем&lt;/div&gt;" style="edgeLabel;html=1;align=center;verticalAlign=middle;resizable=0;points=[];" vertex="1" connectable="0" parent="ra5IvtY3AvrsIVkruxDb-4">
          <mxGeometry x="-0.1208" relative="1" as="geometry">
            <mxPoint x="-34" y="18" as="offset" />
          </mxGeometry>
        </mxCell>
        <mxCell id="ra5IvtY3AvrsIVkruxDb-16" value="" style="endArrow=classic;html=1;rounded=0;" edge="1" parent="1">
          <mxGeometry width="50" height="50" relative="1" as="geometry">
            <mxPoint x="680" y="449.5" as="sourcePoint" />
            <mxPoint x="770" y="449.5" as="targetPoint" />
          </mxGeometry>
        </mxCell>
        <mxCell id="ra5IvtY3AvrsIVkruxDb-17" value="создание курсора" style="edgeLabel;html=1;align=center;verticalAlign=middle;resizable=0;points=[];" vertex="1" connectable="0" parent="ra5IvtY3AvrsIVkruxDb-16">
          <mxGeometry x="0.2622" y="1" relative="1" as="geometry">
            <mxPoint x="-13" y="-18" as="offset" />
          </mxGeometry>
        </mxCell>
        <mxCell id="ra5IvtY3AvrsIVkruxDb-18" value="" style="endArrow=classic;html=1;rounded=0;entryX=1;entryY=0.5;entryDx=0;entryDy=0;" edge="1" parent="1" target="ra5IvtY3AvrsIVkruxDb-20">
          <mxGeometry width="50" height="50" relative="1" as="geometry">
            <mxPoint x="760" y="525" as="sourcePoint" />
            <mxPoint x="680" y="520" as="targetPoint" />
          </mxGeometry>
        </mxCell>
        <mxCell id="ra5IvtY3AvrsIVkruxDb-19" value="получение данных&lt;br&gt;от запроса" style="edgeLabel;html=1;align=center;verticalAlign=middle;resizable=0;points=[];" vertex="1" connectable="0" parent="ra5IvtY3AvrsIVkruxDb-18">
          <mxGeometry x="-0.395" y="-2" relative="1" as="geometry">
            <mxPoint x="-57" y="-18" as="offset" />
          </mxGeometry>
        </mxCell>
        <mxCell id="ra5IvtY3AvrsIVkruxDb-22" value="" style="endArrow=classic;html=1;rounded=0;exitX=0;exitY=0.5;exitDx=0;exitDy=0;" edge="1" parent="1" source="ra5IvtY3AvrsIVkruxDb-20">
          <mxGeometry width="50" height="50" relative="1" as="geometry">
            <mxPoint x="360" y="520" as="sourcePoint" />
            <mxPoint x="70" y="525" as="targetPoint" />
          </mxGeometry>
        </mxCell>
        <mxCell id="ra5IvtY3AvrsIVkruxDb-23" value="перенаправление в главное меню" style="edgeLabel;html=1;align=center;verticalAlign=middle;resizable=0;points=[];" vertex="1" connectable="0" parent="ra5IvtY3AvrsIVkruxDb-22">
          <mxGeometry x="0.2395" y="-1" relative="1" as="geometry">
            <mxPoint x="18" y="-14" as="offset" />
          </mxGeometry>
        </mxCell>
      </root>
    </mxGraphModel>
  </diagram>
</mxfile>
